inDegrees=no
num_controls=7
num_derivatives=13
num_iterations=68
num_multipliers=7
num_parameters=0
num_slacks=7
num_states=26
objective=0.459522
objective_accelerations=0.018444
objective_balance=0.001110
objective_effort=0.010697
objective_height=0.425095
objective_ligament=0.004176
solver_duration=1033.591577
status=Solve_Succeeded
success=true
DataType=double
version=3
OpenSimVersion=4.5
endheader
time	/jointset/ground_pelvis/pelvis_tilt/value	/jointset/ground_pelvis/pelvis_tx/value	/jointset/ground_pelvis/pelvis_ty/value	/jointset/hip_l/hip_flexion_l/value	/jointset/hip_l/hip_adduction_l/value	/jointset/hip_l/hip_rotation_l/value	/jointset/back/lumbar_extension/value	/jointset/patellofemoral_l/patellar_flexion_l/value	/jointset/knee_l/knee_flexion_l/value	/jointset/knee_l/knee_adduction_l/value	/jointset/knee_l/knee_rotation_l/value	/jointset/ankle_l/ankle_angle_l/value	/jointset/subtalar_l/subtalar_angle_l/value	/jointset/ground_pelvis/pelvis_tilt/speed	/jointset/ground_pelvis/pelvis_tx/speed	/jointset/ground_pelvis/pelvis_ty/speed	/jointset/hip_l/hip_flexion_l/speed	/jointset/hip_l/hip_adduction_l/speed	/jointset/hip_l/hip_rotation_l/speed	/jointset/back/lumbar_extension/speed	/jointset/patellofemoral_l/patellar_flexion_l/speed	/jointset/knee_l/knee_flexion_l/speed	/jointset/knee_l/knee_adduction_l/speed	/jointset/knee_l/knee_rotation_l/speed	/jointset/ankle_l/ankle_angle_l/speed	/jointset/subtalar_l/subtalar_angle_l/speed	/forceset/tau_hip_flexion_l	/forceset/tau_hip_adduction_l	/forceset/tau_hip_rotation_l	/forceset/tau_knee_flexion_l	/forceset/tau_ankle_angle_l	/forceset/tau_subtalar_angle_l	/forceset/tau_lumbar_extension	lambda_cid13_p0	lambda_cid13_p1	lambda_cid13_p2	lambda_cid13_p3	lambda_cid13_p4	lambda_cid13_p5	lambda_cid14_p0	/jointset/ground_pelvis/pelvis_tilt/accel	/jointset/ground_pelvis/pelvis_tx/accel	/jointset/ground_pelvis/pelvis_ty/accel	/jointset/hip_l/hip_flexion_l/accel	/jointset/hip_l/hip_adduction_l/accel	/jointset/hip_l/hip_rotation_l/accel	/jointset/back/lumbar_extension/accel	/jointset/patellofemoral_l/patellar_flexion_l/accel	/jointset/knee_l/knee_flexion_l/accel	/jointset/knee_l/knee_adduction_l/accel	/jointset/knee_l/knee_rotation_l/accel	/jointset/ankle_l/ankle_angle_l/accel	/jointset/subtalar_l/subtalar_angle_l/accel	gamma_cid13_p0	gamma_cid13_p1	gamma_cid13_p2	gamma_cid13_p3	gamma_cid13_p4	gamma_cid13_p5	gamma_cid14_p0
1	0.08286602324641257	0.1769170874867816	0.81698514854752	0.2919327172940286	-0.4802287785629264	-0.2852114625743637	-0.2593247647041643	0.781230434754028	0.7812304347537995	-0.17444673677116	-0.1745097619762719	0.4361784834193698	0.1298188346972564	-0.03166555264965416	0.02164697539009538	-0.002887321621406262	0.0002611771575537683	-0.002813074618424308	-0.008312652899610253	0.04985623734791192	-0.003093556246600309	-0.003093556246600958	-6.028132449337751e-05	0.001520197107551127	0.02546404325349954	0.01785596284043032	0.02470433394647284	0.1082360642779586	-0.01443083987346691	-0.2636458881402483	-0.126931644616399	-0.01319502398725865	0.04224293794075738	-78.5191444573161	19.77941797277425	-3.832753019336866	19.11249797050056	-576.6840209860793	-38.07745419144995	-26.89914944663237	-0.6162052285260277	-0.3499546505463209	0.5446068041836097	-0.4000236858964288	0.5925386119989814	-0.9920734384245827	0.5713460141986072	-2.894626296884202	-2.894626296884057	-0.002713515768761482	0.07507215104815541	-2.021253206980076	-0.7512532068740088	4.815800918194411e-13	9.42139098356171e-09	-3.045194585291359e-09	3.814816656823268e-09	1.036581199267336e-10	1.015623857738645e-08	4.895430073216377e-10
1.01	0.08251833870197302	0.1771161100638909	0.8169834325708947	0.2919156953623123	-0.4802273309711329	-0.2853444623157302	-0.2587971930432501	0.7810551382671909	0.781055138267262	-0.1744472150576654	-0.1744911261967142	0.4363322705984485	0.1299599072094747	-0.03787039535546834	0.0181620121594767	0.002543732449457505	-0.003670547833601068	0.003107630185933739	-0.01826638590058315	0.05567498022127598	-0.03196828808160133	-0.03196828808160296	-3.765825723889803e-05	0.002232472457959926	0.005300897537710835	0.0103717561534092	0.02459713665582793	0.1083774950626655	-0.01440000003707318	-0.2633222414959377	-0.1272203744147226	-0.01319074091052967	0.04228132811233871	-78.60517035624025	19.7899613182737	-3.831396442175196	19.06984077867616	-576.6107281372949	-38.03176540035945	-26.90676056257793	-0.6224798612022446	-0.3470951725055846	0.5422951731363245	-0.3904948733594837	0.5925912771304706	-0.9938858838256629	0.589671231725997	-2.884278869843269	-2.884278869843605	0.004410009408238281	0.0731326694701654	-2.012718859758531	-0.7450244618012281	7.767972580246965e-11	1.839695623357749e-08	-3.042910166045418e-09	5.818251997933253e-09	-2.267777872526969e-09	1.612834063732924e-08	9.897428367442928e-10
1.02	0.08210863451655948	0.1772804174060569	0.817036015227898	0.2918592065872001	-0.4801665253587963	-0.2855763719176961	-0.2582109273920239	0.7805910180134044	0.7805910180137688	-0.1744475351552166	-0.1744646021751305	0.4362846515993062	0.1300265336423856	-0.04406948084498823	0.01470392840144825	0.007972405104334102	-0.007632191530117306	0.009058529489358964	-0.02809462501724285	0.06159503540747326	-0.06085830963801026	-0.06085830963801695	-2.864353256536216e-05	0.003097845505676725	-0.01481719241328949	0.002966746978978271	0.0244899393655517	0.1085189258472836	-0.01436916020071248	-0.2629985948515431	-0.1275091042130715	-0.01318645783397385	0.04231971828427721	-78.69854461364001	19.79531486609678	-3.821815270328513	19.04944143289106	-576.6666698304688	-38.01395807516042	-26.92751300602185	-0.6150537852671296	-0.3445787560282889	0.5441305209861683	-0.4060074269687216	0.5985775118123721	-0.9669746615620489	0.5916084767652802	-2.897684241165729	-2.897684241166401	-0.005435184284967143	0.1056916905095825	-2.012242054022409	-0.7354137043560564	2.735948924676052e-10	2.459045116592312e-08	-4.133202643260097e-09	7.055433010269219e-09	-4.239817259548056e-09	2.069027532792579e-08	1.518437974364436e-09
1.03	0.08163688370190648	0.1774102628414303	0.817142845468912	0.2917630930152335	-0.4800460471445809	-0.2859059990926497	-0.2575649523061744	0.7798379684636835	0.7798379684637251	-0.1744477361605649	-0.1744286929877874	0.4360360811980189	0.1300195623500445	-0.050288156641104	0.01126812972912493	0.013390534386707	-0.01158171102571006	0.01504303593002153	-0.03781977408969834	0.0676172269126981	-0.08974921236972565	-0.08974921236973765	-2.860542558272814e-06	0.004102512023095457	-0.03488913673051549	-0.004342983353464591	0.02443752078739029	0.1085448646309846	-0.01434771391467569	-0.2626375372243941	-0.12755588054254	-0.0132169671518363	0.04228810143894107	-78.70375417436149	19.79929869786038	-3.810823876843943	18.99536154007708	-576.5326888090865	-37.97171502151287	-26.96135829016424	-0.6263960828087602	-0.3426331000963111	0.5401865715993978	-0.3881030581719648	0.599274202730986	-0.9736279510939234	0.6101112599197606	-2.884435511218373	-2.884435511218775	0.007893314068349803	0.1006327096569747	-2.003506778272214	-0.7260536296358479	4.707214573057464e-10	3.075555762563945e-08	-5.234643864316217e-09	8.284795100882997e-09	-6.207781171003501e-09	2.523782055556982e-08	2.047423880435574e-09
